<svg width="22" height="14" viewBox="0 0 22 14" fill="none" xmlns="http://www.w3.org/2000/svg">
<path d="M12.1839 1.36631C12.0877 1.26271 12.0048 1.26926 11.9244 1.26926C10.2046 1.26926 8.48485 1.26995 6.76507 1.26946C6.16413 1.26926 5.62093 1.46871 5.1156 1.7798C4.10621 2.40148 3.42513 3.263 3.08737 4.44305C2.5727 6.24101 2.00145 8.02289 1.42417 9.8013C0.874053 11.496 1.90204 12.8511 3.52493 12.7341C4.39665 12.6711 5.27645 12.7278 6.15245 12.72C6.42517 12.7175 6.69546 12.714 6.96818 12.6319C8.37463 12.2083 9.24576 11.2318 9.71399 9.86163C10.0585 8.85315 10.3581 7.8283 10.6599 6.80533C10.7747 6.41645 10.9377 6.03887 10.9929 5.6356C10.8263 5.52615 10.6603 5.57586 10.5037 5.57487C9.64389 5.56932 8.78395 5.56574 7.92412 5.57577C7.61946 5.57934 7.26115 5.45351 7.02339 5.63788C6.7898 5.81898 6.79467 6.19844 6.7013 6.49276C6.50423 7.11424 6.31417 7.7381 6.11555 8.37903C6.59254 8.48015 7.04607 8.35015 7.4961 8.47131C7.36241 8.89969 7.23379 9.28828 7.12241 9.68203C7.08219 9.82393 7.04033 9.92038 6.87237 9.91949C6.01565 9.91542 5.15883 9.9177 4.24534 9.9177C4.42966 9.31428 4.59508 8.76772 4.76362 8.22225C5.15114 6.96817 5.53924 5.71439 5.9289 4.46101C6.04885 4.0751 6.05158 4.075 6.46324 4.07351C6.83644 4.07212 7.20955 4.07322 7.58275 4.07312C8.73459 4.07312 9.88652 4.0757 11.0385 4.06954C11.166 4.06885 11.3267 4.14069 11.3931 3.91921C11.6512 3.05749 11.9241 2.20054 12.1839 1.36631ZM13.7791 12.7091C14.4111 12.7172 15.0629 12.8211 15.6708 12.6683C17.2503 12.2713 18.3802 11.3061 18.8939 9.69383C19.4415 7.97516 19.967 6.24904 20.496 4.52422C20.6304 4.08622 20.7443 3.64861 20.7654 3.17786C20.8241 1.87089 19.7457 1.05492 18.7338 1.08171C17.7939 1.10652 16.853 1.08548 15.9125 1.08836C15.7353 1.08886 15.5593 1.08896 15.3824 1.13679C13.7773 1.57102 12.678 2.55886 12.1602 4.18356C11.9412 4.87063 11.7311 5.56078 11.5212 6.25083C11.1441 7.49032 10.7429 8.72316 10.4016 9.97287C9.95526 11.6077 11.0565 12.7506 12.3206 12.7115C12.8063 12.6966 13.2929 12.7091 13.7791 12.7091ZM2.20991 3.16208C2.95301 1.68206 4.08469 0.670104 5.64819 0.160555C5.80777 0.108558 6.01234 0.178714 6.13054 0H19.2749C19.3039 0.0732322 19.3698 0.0723391 19.4321 0.0868267C20.6967 0.379259 21.5019 1.16308 21.8579 2.43393C21.9247 2.67198 21.8814 2.93028 22 3.15623C21.9407 3.79299 21.8409 4.41745 21.633 5.02841C21.3702 5.80132 21.1726 6.59695 20.9204 7.37392C20.5375 8.55377 20.2495 9.76558 19.7786 10.9159C19.0452 12.2431 18.0085 13.2116 16.5857 13.7252C16.0939 13.9027 15.5916 13.9952 15.0664 13.9945C11.1273 13.989 7.18803 13.9758 3.249 13.9999C1.86679 14.0085 0.293753 13.0273 0.0754585 11.2576C0.0614378 11.1438 0.0256072 11.0329 0 10.9205C0.0179153 10.1408 0.237183 9.40775 0.472614 8.67315C1.06031 6.83897 1.57489 4.98078 2.20991 3.16208Z" fill="black"/>
<path d="M17.7284 4.09465C16.9648 4.09465 16.2703 4.09307 15.5759 4.09525C15.1284 4.09664 15.1303 4.09961 15.0023 4.51787C14.7148 5.45778 14.4234 6.3964 14.1369 7.33671C13.8796 8.18176 13.6268 9.0282 13.3572 9.92326C13.9327 9.92326 14.4649 9.9299 14.9969 9.92068C15.3023 9.91542 15.6608 10.0371 15.8992 9.866C16.1381 9.69443 16.128 9.30654 16.2195 9.01222C16.7198 7.4027 17.2094 5.78991 17.7284 4.09465ZM13.7791 12.7139C13.293 12.7139 12.8063 12.7013 12.3206 12.7163C11.0566 12.7554 9.95537 11.6126 10.4017 9.97773C10.743 8.72793 11.1441 7.49518 11.5213 6.2556C11.7312 5.56555 11.9412 4.8755 12.1602 4.18843C12.6781 2.56372 13.7774 1.57588 15.3825 1.14165C15.5594 1.09372 15.7354 1.09372 15.9126 1.09313C16.8531 1.09035 17.794 1.11139 18.7339 1.08658C19.7458 1.05979 20.8241 1.87576 20.7655 3.18272C20.7444 3.65347 20.6304 4.09108 20.496 4.52898C19.9671 6.25391 19.4416 7.97993 18.8939 9.6987C18.3802 11.311 17.2503 12.2762 15.6709 12.6731C15.063 12.8259 14.4112 12.722 13.7791 12.7139Z" fill="#E62727"/>
<path d="M12.1846 1.36666C11.9248 2.20089 11.6519 3.05785 11.3938 3.91957C11.3274 4.14105 11.1667 4.06921 11.0392 4.0699C9.88725 4.07605 8.73532 4.07347 7.58348 4.07347C7.21028 4.07357 6.83717 4.07248 6.46397 4.07387C6.05231 4.07536 6.04958 4.07546 5.92962 4.46136C5.53997 5.71475 5.15187 6.96852 4.76435 8.2226C4.59581 8.76807 4.43039 9.31463 4.24607 9.91805C5.15956 9.91805 6.01638 9.91577 6.8731 9.91984C7.04106 9.92073 7.08292 9.82428 7.12314 9.68238C7.23452 9.28863 7.36314 8.90005 7.49683 8.47167C7.0468 8.35051 6.59327 8.4805 6.11628 8.37938C6.3149 7.73845 6.50496 7.11459 6.70203 6.49311C6.7954 6.19879 6.79053 5.81933 7.02411 5.63824C7.26188 5.45387 7.62019 5.57969 7.92485 5.57612C8.78468 5.5661 9.64462 5.56967 10.5045 5.57523C10.661 5.57622 10.827 5.5265 10.9936 5.63596C10.9384 6.03923 10.7754 6.4168 10.6606 6.80569C10.3588 7.82865 10.0592 8.85351 9.71472 9.86199C9.24649 11.2322 8.37536 12.2087 6.96891 12.6322C6.69619 12.7144 6.4259 12.7178 6.15318 12.7203C5.27718 12.7282 4.39738 12.6715 3.52566 12.7344C1.90277 12.8514 0.874782 11.4963 1.4249 9.80166C2.00218 8.02325 2.57343 6.24136 3.0881 4.4434C3.42586 3.26335 4.10694 2.40183 5.11633 1.78015C5.62166 1.46907 6.16486 1.26961 6.7658 1.26981C8.48557 1.27031 10.2053 1.26961 11.9251 1.26961C12.0055 1.26961 12.0884 1.26306 12.1846 1.36666Z" fill="#E62727"/>
<path d="M17.7283 4.0904C17.2094 5.78566 16.7197 7.39845 16.2194 9.00797C16.1279 9.30229 16.138 9.69018 15.8991 9.86175C15.6608 10.0328 15.3023 9.91117 14.9968 9.91643C14.4648 9.92566 13.9326 9.91901 13.3572 9.91901C13.6268 9.02395 13.8795 8.17751 14.1369 7.33246C14.4233 6.39215 14.7147 5.45353 15.0023 4.51362C15.1302 4.09536 15.1284 4.09239 15.5759 4.091C16.2703 4.08881 16.9648 4.0904 17.7283 4.0904Z" fill="black"/>
</svg>
