<svg width="15" height="15" viewBox="0 0 15 15" fill="none" xmlns="http://www.w3.org/2000/svg">
<path fill-rule="evenodd" clip-rule="evenodd" d="M7.55034 0C11.6779 0 15 3.32215 15 7.55034C15 11.6779 11.6779 15 7.55034 15C4.83221 15 2.61745 13.6913 1.20805 11.5772C2.51678 9.7651 3.72483 7.75168 4.83221 5.63758C4.83221 5.63758 4.5302 12.2819 6.84564 12.3826C8.65772 12.7852 10.9732 7.14765 10.9732 7.14765C10.7718 7.14765 12.6846 10.4698 13.1879 10.1678C13.3893 10.0671 12.8859 9.36242 12.4832 8.45638C12.0805 7.55034 11.8792 6.34228 11.7785 5.83893C11.6779 5.03356 11.7785 4.73154 11.1745 4.63087C10.6711 4.5302 10.4698 4.93289 10.1678 5.63758C9.26174 7.65101 7.55034 11.1745 6.94631 11.0738C6.04027 10.8725 6.24161 3.32215 6.24161 2.71812C6.34228 2.11409 6.24161 1.81208 5.83893 1.61074C5.13423 1.61074 4.83221 2.41611 4.63087 2.91946C3.12081 5.53691 1.71141 7.95302 0.302013 9.7651C0.100671 9.0604 0 8.25503 0 7.55034C0 3.32215 3.32215 0 7.55034 0Z" fill="#F29201"/>
</svg>
