<svg width="14" height="4" viewBox="0 0 14 4" fill="none" xmlns="http://www.w3.org/2000/svg">
<path d="M2.21791 3.112C2.97391 3.112 3.57591 2.538 3.57591 1.74C3.57591 0.928 2.97391 0.396 2.21791 0.396C1.46191 0.396 0.859906 0.928 0.859906 1.74C0.859906 2.538 1.46191 3.112 2.21791 3.112ZM7.00197 3.112C7.75797 3.112 8.35997 2.538 8.35997 1.74C8.35997 0.928 7.75797 0.396 7.00197 0.396C6.24597 0.396 5.64397 0.928 5.64397 1.74C5.64397 2.538 6.24597 3.112 7.00197 3.112ZM11.786 3.112C12.542 3.112 13.144 2.538 13.144 1.74C13.144 0.928 12.542 0.396 11.786 0.396C11.03 0.396 10.428 0.928 10.428 1.74C10.428 2.538 11.03 3.112 11.786 3.112Z" fill="#F3B233"/>
</svg>
