<svg width="18" height="18" viewBox="0 0 18 18" fill="none" xmlns="http://www.w3.org/2000/svg">
<path fill-rule="evenodd" clip-rule="evenodd" d="M13.6578 7.99332C13.6578 11.3427 11.0091 13.9866 7.82889 13.9866C4.64867 13.9866 2 11.3427 2 7.99332C2 4.64391 4.64867 2 7.82889 2C11.0091 2 13.6578 4.64391 13.6578 7.99332ZM14.1466 12.715C15.0967 11.392 15.6578 9.75956 15.6578 7.99332C15.6578 3.57873 12.1527 0 7.82889 0C3.50511 0 0 3.57873 0 7.99332C0 12.4079 3.50511 15.9866 7.82889 15.9866C9.62741 15.9866 11.2843 15.3674 12.6062 14.3264L16.0999 17.7113C16.4965 18.0956 17.1396 18.0956 17.5363 17.7113L17.7017 17.551C18.0984 17.1667 18.0984 16.5436 17.7017 16.1593L14.1466 12.715Z" fill="#EB1C2A"/>
</svg>
